<mxfile host="Electron" agent="Mozilla/5.0 (Windows NT 10.0; Win64; x64) AppleWebKit/537.36 (KHTML, like Gecko) draw.io/28.0.4 Chrome/138.0.7204.97 Electron/37.2.1 Safari/537.36" version="28.0.4">
  <diagram name="Page-1" id="1iZFki4qpFP0JmTVeNOB">
    <mxGraphModel dx="1442" dy="626" grid="1" gridSize="10" guides="1" tooltips="1" connect="1" arrows="1" fold="1" page="0" pageScale="1" pageWidth="850" pageHeight="1100" math="0" shadow="0">
      <root>
        <mxCell id="0" />
        <mxCell id="1" parent="0" />
        <mxCell id="SJXPOQXoOgDj4QwafDZW-10" value="" style="rounded=0;whiteSpace=wrap;html=1;fillColor=none;fontColor=#333333;strokeColor=#666666;" parent="1" vertex="1">
          <mxGeometry x="370" y="190" width="170" height="320" as="geometry" />
        </mxCell>
        <mxCell id="CW62KwNtaKfLiuYEka3i-1" value="" style="rounded=0;whiteSpace=wrap;html=1;strokeColor=#7EA6E0;" parent="1" vertex="1">
          <mxGeometry x="-40" y="150" width="120" height="360" as="geometry" />
        </mxCell>
        <mxCell id="CW62KwNtaKfLiuYEka3i-2" value="" style="rounded=0;whiteSpace=wrap;html=1;fillColor=none;strokeColor=#d79b00;" parent="1" vertex="1">
          <mxGeometry x="140" y="190" width="160" height="320" as="geometry" />
        </mxCell>
        <mxCell id="CW62KwNtaKfLiuYEka3i-3" value="BRONZE LAYER" style="rounded=0;whiteSpace=wrap;html=1;fillColor=#ffe6cc;strokeColor=#d79b00;" parent="1" vertex="1">
          <mxGeometry x="160" y="150" width="120" height="30" as="geometry" />
        </mxCell>
        <mxCell id="CW62KwNtaKfLiuYEka3i-4" value="SOURCE" style="rounded=0;whiteSpace=wrap;html=1;strokeColor=none;" parent="1" vertex="1">
          <mxGeometry x="-29" y="134" width="100" height="30" as="geometry" />
        </mxCell>
        <mxCell id="SJXPOQXoOgDj4QwafDZW-4" style="edgeStyle=orthogonalEdgeStyle;rounded=0;orthogonalLoop=1;jettySize=auto;html=1;entryX=0;entryY=0.25;entryDx=0;entryDy=0;" parent="1" source="CW62KwNtaKfLiuYEka3i-5" target="CW62KwNtaKfLiuYEka3i-10" edge="1">
          <mxGeometry relative="1" as="geometry">
            <Array as="points">
              <mxPoint x="101" y="255" />
              <mxPoint x="101" y="254" />
            </Array>
          </mxGeometry>
        </mxCell>
        <mxCell id="SJXPOQXoOgDj4QwafDZW-6" style="edgeStyle=orthogonalEdgeStyle;rounded=0;orthogonalLoop=1;jettySize=auto;html=1;entryX=0;entryY=0.5;entryDx=0;entryDy=0;" parent="1" source="CW62KwNtaKfLiuYEka3i-5" target="CW62KwNtaKfLiuYEka3i-11" edge="1">
          <mxGeometry relative="1" as="geometry" />
        </mxCell>
        <mxCell id="CW62KwNtaKfLiuYEka3i-5" value="" style="image;aspect=fixed;html=1;points=[];align=center;fontSize=12;image=img/lib/azure2/general/Folder_Blank.svg;" parent="1" vertex="1">
          <mxGeometry y="240" width="36.96" height="30" as="geometry" />
        </mxCell>
        <mxCell id="SJXPOQXoOgDj4QwafDZW-7" style="edgeStyle=orthogonalEdgeStyle;rounded=0;orthogonalLoop=1;jettySize=auto;html=1;entryX=0;entryY=0.5;entryDx=0;entryDy=0;" parent="1" source="CW62KwNtaKfLiuYEka3i-6" target="CW62KwNtaKfLiuYEka3i-14" edge="1">
          <mxGeometry relative="1" as="geometry" />
        </mxCell>
        <mxCell id="SJXPOQXoOgDj4QwafDZW-8" style="edgeStyle=orthogonalEdgeStyle;rounded=0;orthogonalLoop=1;jettySize=auto;html=1;entryX=0;entryY=0.5;entryDx=0;entryDy=0;" parent="1" source="CW62KwNtaKfLiuYEka3i-6" target="CW62KwNtaKfLiuYEka3i-15" edge="1">
          <mxGeometry relative="1" as="geometry" />
        </mxCell>
        <mxCell id="SJXPOQXoOgDj4QwafDZW-9" style="edgeStyle=orthogonalEdgeStyle;rounded=0;orthogonalLoop=1;jettySize=auto;html=1;entryX=0;entryY=0.5;entryDx=0;entryDy=0;" parent="1" source="CW62KwNtaKfLiuYEka3i-6" target="CW62KwNtaKfLiuYEka3i-16" edge="1">
          <mxGeometry relative="1" as="geometry" />
        </mxCell>
        <mxCell id="CW62KwNtaKfLiuYEka3i-6" value="" style="image;aspect=fixed;html=1;points=[];align=center;fontSize=12;image=img/lib/azure2/general/Folder_Blank.svg;" parent="1" vertex="1">
          <mxGeometry y="399" width="36.96" height="30" as="geometry" />
        </mxCell>
        <mxCell id="CW62KwNtaKfLiuYEka3i-7" value="CRM" style="rounded=0;whiteSpace=wrap;html=1;strokeColor=none;" parent="1" vertex="1">
          <mxGeometry x="-31.52" y="270" width="100" height="30" as="geometry" />
        </mxCell>
        <mxCell id="CW62KwNtaKfLiuYEka3i-8" value="ERP" style="rounded=0;whiteSpace=wrap;html=1;strokeColor=none;" parent="1" vertex="1">
          <mxGeometry x="-31.519999999999996" y="429" width="100" height="30" as="geometry" />
        </mxCell>
        <mxCell id="SJXPOQXoOgDj4QwafDZW-18" style="edgeStyle=orthogonalEdgeStyle;rounded=0;orthogonalLoop=1;jettySize=auto;html=1;entryX=0;entryY=0.5;entryDx=0;entryDy=0;" parent="1" source="CW62KwNtaKfLiuYEka3i-9" target="SJXPOQXoOgDj4QwafDZW-12" edge="1">
          <mxGeometry relative="1" as="geometry" />
        </mxCell>
        <mxCell id="CW62KwNtaKfLiuYEka3i-9" value="crm_cust_info" style="rounded=0;whiteSpace=wrap;html=1;fillColor=#ffe6cc;strokeColor=#d79b00;" parent="1" vertex="1">
          <mxGeometry x="165" y="202" width="110" height="30" as="geometry" />
        </mxCell>
        <mxCell id="SJXPOQXoOgDj4QwafDZW-19" style="edgeStyle=orthogonalEdgeStyle;rounded=0;orthogonalLoop=1;jettySize=auto;html=1;entryX=0;entryY=0.5;entryDx=0;entryDy=0;" parent="1" source="CW62KwNtaKfLiuYEka3i-10" target="SJXPOQXoOgDj4QwafDZW-13" edge="1">
          <mxGeometry relative="1" as="geometry" />
        </mxCell>
        <mxCell id="CW62KwNtaKfLiuYEka3i-10" value="crm_prd_inf" style="rounded=0;whiteSpace=wrap;html=1;fillColor=#ffe6cc;strokeColor=#d79b00;" parent="1" vertex="1">
          <mxGeometry x="165" y="246" width="110" height="30" as="geometry" />
        </mxCell>
        <mxCell id="SJXPOQXoOgDj4QwafDZW-20" style="edgeStyle=orthogonalEdgeStyle;rounded=0;orthogonalLoop=1;jettySize=auto;html=1;entryX=0;entryY=0.5;entryDx=0;entryDy=0;" parent="1" source="CW62KwNtaKfLiuYEka3i-11" target="SJXPOQXoOgDj4QwafDZW-14" edge="1">
          <mxGeometry relative="1" as="geometry" />
        </mxCell>
        <mxCell id="CW62KwNtaKfLiuYEka3i-11" value="crm_sales_details" style="rounded=0;whiteSpace=wrap;html=1;fillColor=#ffe6cc;strokeColor=#d79b00;" parent="1" vertex="1">
          <mxGeometry x="165" y="291" width="110" height="30" as="geometry" />
        </mxCell>
        <mxCell id="SJXPOQXoOgDj4QwafDZW-21" style="edgeStyle=orthogonalEdgeStyle;rounded=0;orthogonalLoop=1;jettySize=auto;html=1;entryX=0;entryY=0.5;entryDx=0;entryDy=0;" parent="1" source="CW62KwNtaKfLiuYEka3i-14" target="SJXPOQXoOgDj4QwafDZW-15" edge="1">
          <mxGeometry relative="1" as="geometry" />
        </mxCell>
        <mxCell id="CW62KwNtaKfLiuYEka3i-14" value="erp_cust_az12" style="rounded=0;whiteSpace=wrap;html=1;fillColor=#ffe6cc;strokeColor=#d79b00;" parent="1" vertex="1">
          <mxGeometry x="165" y="365" width="110" height="30" as="geometry" />
        </mxCell>
        <mxCell id="SJXPOQXoOgDj4QwafDZW-22" style="edgeStyle=orthogonalEdgeStyle;rounded=0;orthogonalLoop=1;jettySize=auto;html=1;entryX=0;entryY=0.5;entryDx=0;entryDy=0;" parent="1" source="CW62KwNtaKfLiuYEka3i-15" target="SJXPOQXoOgDj4QwafDZW-16" edge="1">
          <mxGeometry relative="1" as="geometry" />
        </mxCell>
        <mxCell id="CW62KwNtaKfLiuYEka3i-15" value="erp_loc_a101" style="rounded=0;whiteSpace=wrap;html=1;fillColor=#ffe6cc;strokeColor=#d79b00;" parent="1" vertex="1">
          <mxGeometry x="165" y="404" width="110" height="30" as="geometry" />
        </mxCell>
        <mxCell id="SJXPOQXoOgDj4QwafDZW-24" style="edgeStyle=orthogonalEdgeStyle;rounded=0;orthogonalLoop=1;jettySize=auto;html=1;entryX=0;entryY=0.5;entryDx=0;entryDy=0;" parent="1" source="CW62KwNtaKfLiuYEka3i-16" target="SJXPOQXoOgDj4QwafDZW-17" edge="1">
          <mxGeometry relative="1" as="geometry" />
        </mxCell>
        <mxCell id="CW62KwNtaKfLiuYEka3i-16" value="erp_px_cat_g1v2" style="rounded=0;whiteSpace=wrap;html=1;fillColor=#ffe6cc;strokeColor=#d79b00;" parent="1" vertex="1">
          <mxGeometry x="165" y="448" width="110" height="30" as="geometry" />
        </mxCell>
        <mxCell id="SJXPOQXoOgDj4QwafDZW-1" style="edgeStyle=orthogonalEdgeStyle;rounded=0;orthogonalLoop=1;jettySize=auto;html=1;entryX=0;entryY=0.5;entryDx=0;entryDy=0;" parent="1" source="CW62KwNtaKfLiuYEka3i-5" target="CW62KwNtaKfLiuYEka3i-9" edge="1">
          <mxGeometry relative="1" as="geometry">
            <Array as="points">
              <mxPoint x="100" y="255" />
              <mxPoint x="100" y="217" />
            </Array>
          </mxGeometry>
        </mxCell>
        <mxCell id="SJXPOQXoOgDj4QwafDZW-11" value="BRONZE LAYER" style="rounded=0;whiteSpace=wrap;html=1;fillColor=#f5f5f5;strokeColor=#666666;fontColor=#333333;" parent="1" vertex="1">
          <mxGeometry x="394" y="150" width="120" height="30" as="geometry" />
        </mxCell>
        <mxCell id="SJXPOQXoOgDj4QwafDZW-12" value="crm_cust_info" style="rounded=0;whiteSpace=wrap;html=1;fillColor=#f5f5f5;strokeColor=#666666;fontColor=#333333;" parent="1" vertex="1">
          <mxGeometry x="399" y="202" width="110" height="30" as="geometry" />
        </mxCell>
        <mxCell id="SJXPOQXoOgDj4QwafDZW-13" value="crm_prd_inf" style="rounded=0;whiteSpace=wrap;html=1;fillColor=#f5f5f5;strokeColor=#666666;fontColor=#333333;" parent="1" vertex="1">
          <mxGeometry x="399" y="246" width="110" height="30" as="geometry" />
        </mxCell>
        <mxCell id="SJXPOQXoOgDj4QwafDZW-14" value="crm_sales_details" style="rounded=0;whiteSpace=wrap;html=1;fillColor=#f5f5f5;strokeColor=#666666;fontColor=#333333;" parent="1" vertex="1">
          <mxGeometry x="399" y="291" width="110" height="30" as="geometry" />
        </mxCell>
        <mxCell id="SJXPOQXoOgDj4QwafDZW-15" value="erp_cust_az12" style="rounded=0;whiteSpace=wrap;html=1;fillColor=#f5f5f5;strokeColor=#666666;fontColor=#333333;" parent="1" vertex="1">
          <mxGeometry x="399" y="365" width="110" height="30" as="geometry" />
        </mxCell>
        <mxCell id="SJXPOQXoOgDj4QwafDZW-16" value="erp_loc_a101" style="rounded=0;whiteSpace=wrap;html=1;fillColor=#f5f5f5;strokeColor=#666666;fontColor=#333333;" parent="1" vertex="1">
          <mxGeometry x="399" y="404" width="110" height="30" as="geometry" />
        </mxCell>
        <mxCell id="SJXPOQXoOgDj4QwafDZW-17" value="erp_px_cat_g1v2" style="rounded=0;whiteSpace=wrap;html=1;fillColor=#f5f5f5;strokeColor=#666666;fontColor=#333333;" parent="1" vertex="1">
          <mxGeometry x="399" y="448" width="110" height="30" as="geometry" />
        </mxCell>
        <mxCell id="Jr2nS9CYoPKLXppaZaEn-1" value="" style="rounded=0;whiteSpace=wrap;html=1;fillColor=none;strokeColor=#d6b656;" vertex="1" parent="1">
          <mxGeometry x="600" y="190" width="170" height="320" as="geometry" />
        </mxCell>
        <mxCell id="Jr2nS9CYoPKLXppaZaEn-2" value="GOLD LAYER" style="rounded=0;whiteSpace=wrap;html=1;fillColor=#fff2cc;strokeColor=#d6b656;" vertex="1" parent="1">
          <mxGeometry x="624" y="150" width="120" height="30" as="geometry" />
        </mxCell>
        <mxCell id="Jr2nS9CYoPKLXppaZaEn-3" value="dim_customers" style="rounded=0;whiteSpace=wrap;html=1;fillColor=#fff2cc;strokeColor=#d6b656;" vertex="1" parent="1">
          <mxGeometry x="630" y="244" width="110" height="30" as="geometry" />
        </mxCell>
        <mxCell id="Jr2nS9CYoPKLXppaZaEn-4" value="dim_product" style="rounded=0;whiteSpace=wrap;html=1;fillColor=#fff2cc;strokeColor=#d6b656;" vertex="1" parent="1">
          <mxGeometry x="630" y="329" width="110" height="30" as="geometry" />
        </mxCell>
        <mxCell id="Jr2nS9CYoPKLXppaZaEn-5" value="fact_sales" style="rounded=0;whiteSpace=wrap;html=1;fillColor=#fff2cc;strokeColor=#d6b656;" vertex="1" parent="1">
          <mxGeometry x="630" y="417" width="110" height="30" as="geometry" />
        </mxCell>
        <mxCell id="Jr2nS9CYoPKLXppaZaEn-10" value="" style="endArrow=classic;html=1;rounded=0;entryX=0;entryY=0.5;entryDx=0;entryDy=0;" edge="1" parent="1" target="Jr2nS9CYoPKLXppaZaEn-3">
          <mxGeometry width="50" height="50" relative="1" as="geometry">
            <mxPoint x="509" y="220" as="sourcePoint" />
            <mxPoint x="559" y="170" as="targetPoint" />
          </mxGeometry>
        </mxCell>
        <mxCell id="Jr2nS9CYoPKLXppaZaEn-12" value="" style="endArrow=classic;html=1;rounded=0;entryX=0;entryY=0.5;entryDx=0;entryDy=0;jumpStyle=gap;" edge="1" parent="1" target="Jr2nS9CYoPKLXppaZaEn-3">
          <mxGeometry width="50" height="50" relative="1" as="geometry">
            <mxPoint x="509" y="380" as="sourcePoint" />
            <mxPoint x="630" y="419" as="targetPoint" />
          </mxGeometry>
        </mxCell>
        <mxCell id="Jr2nS9CYoPKLXppaZaEn-13" value="" style="endArrow=classic;html=1;rounded=0;entryX=0;entryY=0.25;entryDx=0;entryDy=0;exitX=1;exitY=0.5;exitDx=0;exitDy=0;jumpStyle=gap;" edge="1" parent="1" source="SJXPOQXoOgDj4QwafDZW-13" target="Jr2nS9CYoPKLXppaZaEn-4">
          <mxGeometry width="50" height="50" relative="1" as="geometry">
            <mxPoint x="540" y="301" as="sourcePoint" />
            <mxPoint x="661" y="180" as="targetPoint" />
          </mxGeometry>
        </mxCell>
        <mxCell id="Jr2nS9CYoPKLXppaZaEn-14" value="" style="endArrow=classic;html=1;rounded=0;entryX=0;entryY=0.5;entryDx=0;entryDy=0;exitX=1;exitY=0.5;exitDx=0;exitDy=0;jumpStyle=gap;" edge="1" parent="1" source="SJXPOQXoOgDj4QwafDZW-17" target="Jr2nS9CYoPKLXppaZaEn-4">
          <mxGeometry width="50" height="50" relative="1" as="geometry">
            <mxPoint x="560" y="441" as="sourcePoint" />
            <mxPoint x="681" y="320" as="targetPoint" />
          </mxGeometry>
        </mxCell>
        <mxCell id="Jr2nS9CYoPKLXppaZaEn-15" value="" style="endArrow=classic;html=1;rounded=0;entryX=0;entryY=1;entryDx=0;entryDy=0;exitX=1;exitY=0.5;exitDx=0;exitDy=0;jumpStyle=gap;" edge="1" parent="1" source="SJXPOQXoOgDj4QwafDZW-16" target="Jr2nS9CYoPKLXppaZaEn-3">
          <mxGeometry width="50" height="50" relative="1" as="geometry">
            <mxPoint x="570" y="519" as="sourcePoint" />
            <mxPoint x="691" y="400" as="targetPoint" />
          </mxGeometry>
        </mxCell>
        <mxCell id="Jr2nS9CYoPKLXppaZaEn-17" value="" style="endArrow=classic;html=1;rounded=0;entryX=0;entryY=0.25;entryDx=0;entryDy=0;exitX=1;exitY=0.5;exitDx=0;exitDy=0;jumpStyle=gap;" edge="1" parent="1" source="SJXPOQXoOgDj4QwafDZW-14" target="Jr2nS9CYoPKLXppaZaEn-5">
          <mxGeometry width="50" height="50" relative="1" as="geometry">
            <mxPoint x="520" y="329" as="sourcePoint" />
            <mxPoint x="641" y="208" as="targetPoint" />
          </mxGeometry>
        </mxCell>
      </root>
    </mxGraphModel>
  </diagram>
</mxfile>
